<svg width="18" height="18" viewBox="0 0 18 18" fill="none" xmlns="http://www.w3.org/2000/svg">
<path d="M5 10C5.79565 10 6.55871 10.3161 7.12132 10.8787C7.68393 11.4413 8 12.2044 8 13V15C8 15.7956 7.68393 16.5587 7.12132 17.1213C6.55871 17.6839 5.79565 18 5 18H3C2.20435 18 1.44129 17.6839 0.87868 17.1213C0.31607 16.5587 0 15.7956 0 15L0 13C0 12.2044 0.31607 11.4413 0.87868 10.8787C1.44129 10.3161 2.20435 10 3 10H5ZM14 10C14.2449 10 14.4813 10.09 14.6644 10.2527C14.8474 10.4155 14.9643 10.6397 14.993 10.883L15 11V13H17C17.2549 13.0003 17.5 13.0979 17.6854 13.2728C17.8707 13.4478 17.9822 13.687 17.9972 13.9414C18.0121 14.1958 17.9293 14.4464 17.7657 14.6418C17.6021 14.8373 17.3701 14.9629 17.117 14.993L17 15H15V17C14.9997 17.2549 14.9021 17.5 14.7272 17.6854C14.5522 17.8707 14.313 17.9822 14.0586 17.9972C13.8042 18.0121 13.5536 17.9293 13.3582 17.7657C13.1627 17.6021 13.0371 17.3701 13.007 17.117L13 17V15H11C10.7451 14.9997 10.5 14.9021 10.3146 14.7272C10.1293 14.5522 10.0178 14.313 10.0028 14.0586C9.98789 13.8042 10.0707 13.5536 10.2343 13.3582C10.3979 13.1627 10.6299 13.0371 10.883 13.007L11 13H13V11C13 10.7348 13.1054 10.4804 13.2929 10.2929C13.4804 10.1054 13.7348 10 14 10ZM5 12H3C2.73478 12 2.48043 12.1054 2.29289 12.2929C2.10536 12.4804 2 12.7348 2 13V15C2 15.2652 2.10536 15.5196 2.29289 15.7071C2.48043 15.8946 2.73478 16 3 16H5C5.26522 16 5.51957 15.8946 5.70711 15.7071C5.89464 15.5196 6 15.2652 6 15V13C6 12.7348 5.89464 12.4804 5.70711 12.2929C5.51957 12.1054 5.26522 12 5 12ZM5 0C5.79565 0 6.55871 0.31607 7.12132 0.87868C7.68393 1.44129 8 2.20435 8 3V5C8 5.79565 7.68393 6.55871 7.12132 7.12132C6.55871 7.68393 5.79565 8 5 8H3C2.20435 8 1.44129 7.68393 0.87868 7.12132C0.31607 6.55871 0 5.79565 0 5L0 3C0 2.20435 0.31607 1.44129 0.87868 0.87868C1.44129 0.31607 2.20435 0 3 0L5 0ZM15 0C15.7956 0 16.5587 0.31607 17.1213 0.87868C17.6839 1.44129 18 2.20435 18 3V5C18 5.79565 17.6839 6.55871 17.1213 7.12132C16.5587 7.68393 15.7956 8 15 8H13C12.2044 8 11.4413 7.68393 10.8787 7.12132C10.3161 6.55871 10 5.79565 10 5V3C10 2.20435 10.3161 1.44129 10.8787 0.87868C11.4413 0.31607 12.2044 0 13 0L15 0ZM5 2H3C2.73478 2 2.48043 2.10536 2.29289 2.29289C2.10536 2.48043 2 2.73478 2 3V5C2 5.26522 2.10536 5.51957 2.29289 5.70711C2.48043 5.89464 2.73478 6 3 6H5C5.26522 6 5.51957 5.89464 5.70711 5.70711C5.89464 5.51957 6 5.26522 6 5V3C6 2.73478 5.89464 2.48043 5.70711 2.29289C5.51957 2.10536 5.26522 2 5 2ZM15 2H13C12.7348 2 12.4804 2.10536 12.2929 2.29289C12.1054 2.48043 12 2.73478 12 3V5C12 5.26522 12.1054 5.51957 12.2929 5.70711C12.4804 5.89464 12.7348 6 13 6H15C15.2652 6 15.5196 5.89464 15.7071 5.70711C15.8946 5.51957 16 5.26522 16 5V3C16 2.73478 15.8946 2.48043 15.7071 2.29289C15.5196 2.10536 15.2652 2 15 2Z" fill="white" fill-opacity="0.7"/>
</svg>
