<svg width="34" height="50" viewBox="0 0 34 50" fill="none" xmlns="http://www.w3.org/2000/svg">
<g clip-path="url(#clip0_324_153)">
<path d="M8.33675 49.9999C12.9368 49.9999 16.6701 46.2666 16.6701 41.6666V33.3333H8.33675C3.73675 33.3333 0.00341797 37.0666 0.00341797 41.6666C0.00341797 46.2666 3.73675 49.9999 8.33675 49.9999Z" fill="#0ACF83"/>
<path d="M0.00341797 25.0001C0.00341797 20.4001 3.73675 16.6667 8.33675 16.6667H16.6701V33.3334H8.33675C3.73675 33.3334 0.00341797 29.6001 0.00341797 25.0001Z" fill="#A259FF"/>
<path d="M0.00366211 8.33333C0.00366211 3.73333 3.737 0 8.337 0H16.6703V16.6667H8.337C3.737 16.6667 0.00366211 12.9333 0.00366211 8.33333Z" fill="#F24E1E"/>
<path d="M16.6702 0H25.0035C29.6035 0 33.3368 3.73333 33.3368 8.33333C33.3368 12.9333 29.6035 16.6667 25.0035 16.6667H16.6702V0Z" fill="#FF7262"/>
<path d="M33.3368 25.0001C33.3368 29.6001 29.6035 33.3334 25.0035 33.3334C20.4035 33.3334 16.6702 29.6001 16.6702 25.0001C16.6702 20.4001 20.4035 16.6667 25.0035 16.6667C29.6035 16.6667 33.3368 20.4001 33.3368 25.0001Z" fill="#1ABCFE"/>
</g>
<defs>
<clipPath id="clip0_324_153">
<rect width="33.34" height="50" fill="white"/>
</clipPath>
</defs>
</svg>
