<svg width="46" height="48" viewBox="0 0 46 48" fill="none" xmlns="http://www.w3.org/2000/svg">
<path fill-rule="evenodd" clip-rule="evenodd" d="M29.4477 0.109531L2.88813 2.07127C0.745432 2.25655 0 3.6567 0 5.33476V34.4513C0 35.7583 0.464155 36.8767 1.58398 38.3714L7.82728 46.4895C8.85303 47.7966 9.78566 48.0769 11.744 47.9838L42.5871 46.1166C45.1949 45.9308 45.9423 44.7164 45.9423 42.664V9.90767C45.9423 8.84688 45.5232 8.54113 44.2896 7.63585L35.5998 1.5092C33.5488 0.0178523 32.7102 -0.170786 29.4477 0.109051V0.109531ZM12.4415 9.37152C9.92294 9.54095 9.35174 9.57935 7.92136 8.41633L4.28492 5.52388C3.91532 5.14948 4.10108 4.68244 5.03227 4.58933L30.5646 2.72358C32.7088 2.53639 33.8253 3.28374 34.6638 3.93653L39.0428 7.1093C39.23 7.20386 39.6956 7.76209 39.1354 7.76209L12.7679 9.34944L12.4415 9.37152ZM9.50534 42.3841V14.5766C9.50534 13.3622 9.8783 12.802 10.9948 12.708L41.2796 10.9349C42.3068 10.8422 42.7709 11.495 42.7709 12.7075V40.3298C42.7709 41.5441 42.5837 42.5713 40.9071 42.664L11.9264 44.344C10.2498 44.4366 9.50582 43.8784 9.50582 42.3841H9.50534ZM38.113 16.0674C38.2988 16.9074 38.113 17.7474 37.2731 17.8434L35.8763 18.1204V38.6512C34.6633 39.304 33.5469 39.677 32.6137 39.677C31.1224 39.677 30.7499 39.2099 29.633 37.8112L20.4987 23.4402V37.3442L23.3882 37.9984C23.3882 37.9984 23.3882 39.6784 21.0569 39.6784L14.6298 40.0514C14.4426 39.677 14.6298 38.7443 15.2811 38.5586L16.9597 38.093V19.7092L14.6303 19.5205C14.4431 18.6805 14.9086 17.4676 16.2142 17.3735L23.1103 16.9094L32.6142 31.4662V18.5879L30.1917 18.3095C30.0045 17.2809 30.7499 16.5335 31.6811 16.4423L38.113 16.0674Z" fill="black"/>
</svg>
