<svg width="48" height="48" viewBox="0 0 48 48" fill="none" xmlns="http://www.w3.org/2000/svg">
<g clip-path="url(#clip0_324_137)">
<path d="M2.88816 2.06984L29.448 0.108076C32.7106 -0.171764 33.5486 0.0168759 35.6002 1.50824L44.0784 7.48088C45.4766 8.50808 45.9422 8.78792 45.9422 9.90632V42.663C45.9422 44.7159 45.1968 45.9303 42.587 46.1156L11.7442 47.9838C9.78576 48.0764 8.85312 47.7966 7.82736 46.4895L1.584 38.3708C0.46416 36.8766 0 35.7582 0 34.4506V5.33384C0 3.65528 0.74544 2.2556 2.88816 2.06984Z" fill="white"/>
<path fill-rule="evenodd" clip-rule="evenodd" d="M29.448 0.108556L2.88816 2.07032C0.74544 2.2556 0 3.65576 0 5.33384V34.4506C0 35.7577 0.46416 36.8761 1.584 38.3708L7.82736 46.489C8.85312 47.7961 9.78576 48.0764 11.7442 47.9833L42.5875 46.1161C45.1954 45.9303 45.9427 44.7159 45.9427 42.6634V9.90679C45.9427 8.84599 45.5237 8.54024 44.2901 7.63496L35.6002 1.50824C33.5491 0.0168759 32.7106 -0.171764 29.448 0.108076V0.108556ZM12.4416 9.37064C9.92304 9.54008 9.35184 9.57847 7.92144 8.41544L4.28496 5.52296C3.91536 5.14856 4.10112 4.68152 5.03232 4.5884L30.565 2.72264C32.7091 2.53544 33.8256 3.2828 34.6642 3.9356L39.0432 7.1084C39.2304 7.20296 39.696 7.7612 39.1358 7.7612L12.768 9.34855L12.4416 9.37064ZM9.50544 42.3836V14.5758C9.50544 13.3614 9.8784 12.8012 10.9949 12.7071L41.28 10.934C42.3072 10.8414 42.7714 11.4942 42.7714 12.7066V40.3292C42.7714 41.5436 42.5842 42.5708 40.9075 42.6634L11.9266 44.3434C10.2499 44.4361 9.50592 43.8778 9.50592 42.3836H9.50544ZM38.1134 16.0666C38.2992 16.9066 38.1134 17.7466 37.2734 17.8426L35.8766 18.1196V38.6506C34.6637 39.3034 33.5472 39.6764 32.6141 39.6764C31.1227 39.6764 30.7502 39.2094 29.6333 37.8106L20.4989 23.4394V37.3436L23.3885 37.9978C23.3885 37.9978 23.3885 39.6778 21.0571 39.6778L14.6299 40.0508C14.4427 39.6764 14.6299 38.7438 15.2813 38.558L16.9598 38.0924V19.7084L14.6304 19.5198C14.4432 18.6798 14.9088 17.4668 16.2144 17.3727L23.1106 16.9086L32.6146 31.4655V18.5871L30.192 18.3087C30.0048 17.2801 30.7502 16.5327 31.6814 16.4415L38.1134 16.0666Z" fill="black"/>
</g>
<defs>
<clipPath id="clip0_324_137">
<rect width="48" height="48" fill="white"/>
</clipPath>
</defs>
</svg>
