<svg width="50" height="50" viewBox="0 0 50 50" fill="none" xmlns="http://www.w3.org/2000/svg">
<path d="M46.0837 20.4647C47.2181 17.0599 46.8275 13.3302 45.0134 10.2332C42.2852 5.48315 36.8008 3.03935 31.4444 4.18938C29.0615 1.50495 25.638 -0.0216435 22.0489 0.000231916C16.5738 -0.0122683 11.7159 3.5128 10.0315 8.72228C6.51422 9.4426 3.47822 11.6442 1.70163 14.7646C-1.04686 19.5022 -0.420289 25.4742 3.25166 29.5367C2.11726 32.9415 2.50789 36.6713 4.32199 39.7682C7.05017 44.5183 12.5347 46.9621 17.891 45.8121C20.2723 48.4965 23.6974 50.0231 27.2865 49.9996C32.7647 50.0137 37.6242 46.4855 39.3086 41.2714C42.8259 40.551 45.8619 38.3494 47.6385 35.229C50.3838 30.4915 49.7557 24.5241 46.0853 20.4616L46.0837 20.4647ZM27.2896 46.7324C25.0974 46.7355 22.9739 45.9683 21.2911 44.5636C21.3676 44.523 21.5005 44.4495 21.5864 44.3964L31.5428 38.6463C32.0522 38.3572 32.3647 37.815 32.3616 37.2291V23.1929L36.5695 25.6226C36.6148 25.6445 36.6445 25.6882 36.6508 25.7382V37.3619C36.6445 42.5307 32.4585 46.7215 27.2896 46.7324ZM7.15798 38.1338C6.05953 36.2369 5.66421 34.0134 6.04078 31.8555C6.11421 31.8993 6.2439 31.979 6.33609 32.0321L16.2925 37.7822C16.7972 38.0775 17.4222 38.0775 17.9285 37.7822L30.0834 30.7633V35.6228C30.0866 35.6728 30.0631 35.7212 30.0241 35.7525L19.9598 41.5635C15.4769 44.1448 9.75179 42.6104 7.15955 38.1338H7.15798ZM4.53762 16.4006C5.63139 14.5005 7.35799 13.0474 9.41428 12.2927C9.41428 12.3786 9.40959 12.5302 9.40959 12.6364V24.1382C9.40647 24.7226 9.71897 25.2648 10.2268 25.5539L22.3817 32.5712L18.1738 35.0009C18.1316 35.029 18.0785 35.0337 18.0316 35.0134L7.96581 29.1977C3.49229 26.607 1.95788 20.8835 4.53606 16.4021L4.53762 16.4006ZM39.1102 24.446L26.9552 17.4271L31.1631 14.999C31.2053 14.9708 31.2585 14.9662 31.3053 14.9865L41.3712 20.7975C45.8525 23.3866 47.3885 29.1195 44.7993 33.6009C43.704 35.4978 41.979 36.951 39.9243 37.7072V25.8617C39.9289 25.2773 39.618 24.7367 39.1117 24.446H39.1102ZM43.2978 18.1428C43.2243 18.0975 43.0946 18.0193 43.0024 17.9662L33.046 12.2161C32.5413 11.9208 31.9163 11.9208 31.41 12.2161L19.2551 19.235V14.3755C19.252 14.3255 19.2754 14.2771 19.3145 14.2458L29.3787 8.43946C33.8616 5.85347 39.593 7.39256 42.1774 11.877C43.2696 13.7708 43.6649 15.988 43.2946 18.1428H43.2978ZM16.9676 26.8039L12.7581 24.3741C12.7128 24.3523 12.6831 24.3085 12.6768 24.2585V12.6349C12.68 7.45975 16.8785 3.26592 22.0536 3.26905C24.2427 3.26905 26.3615 4.03781 28.0443 5.43784C27.9678 5.47846 27.8365 5.5519 27.749 5.60503L17.7926 11.3551C17.2832 11.6442 16.9707 12.1848 16.9738 12.7708L16.9676 26.8008V26.8039ZM19.2535 21.8757L24.6677 18.749L30.0819 21.8741V28.1258L24.6677 31.2508L19.2535 28.1258V21.8757Z" fill="black"/>
</svg>
