<svg width="50" height="50" viewBox="0 0 50 50" fill="none" xmlns="http://www.w3.org/2000/svg">
<g clip-path="url(#clip0_324_150)">
<path d="M46.4156 20.4641C47.55 17.0594 47.1594 13.3297 45.3453 10.2328C42.6172 5.4828 37.1328 3.03905 31.7765 4.18905C29.3937 1.50468 25.9703 -0.0218872 22.3812 -1.22293e-05C16.9062 -0.0125122 12.0484 3.51249 10.364 8.72186C6.84686 9.44217 3.81092 11.6437 2.03436 14.7641C-0.71408 19.5016 -0.0875174 25.4734 3.58436 29.5359C2.44998 32.9406 2.84061 36.6703 4.65467 39.7672C7.3828 44.5172 12.8672 46.9609 18.2234 45.8109C20.6047 48.4953 24.0297 50.0219 27.6187 49.9984C33.0969 50.0125 37.9562 46.4844 39.6406 41.2703C43.1578 40.55 46.1937 38.3484 47.9703 35.2281C50.7156 30.4906 50.0875 24.5234 46.4172 20.4609L46.4156 20.4641ZM27.6219 46.7312C25.4297 46.7344 23.3062 45.9672 21.6234 44.5625C21.7 44.5219 21.8328 44.4484 21.9187 44.3953L31.875 38.6453C32.3844 38.3562 32.6969 37.814 32.6937 37.2281V23.1922L36.9016 25.6219C36.9469 25.6437 36.9766 25.6875 36.9828 25.7375V37.3609C36.9766 42.5297 32.7906 46.7203 27.6219 46.7312ZM7.49061 38.1328C6.39217 36.2359 5.99686 34.0125 6.37342 31.8547C6.44686 31.8984 6.57655 31.9781 6.66873 32.0312L16.625 37.7812C17.1297 38.0765 17.7547 38.0765 18.2609 37.7812L30.4156 30.7625V35.6219C30.4187 35.6719 30.3953 35.7203 30.3562 35.7515L20.2922 41.5625C15.8094 44.1437 10.0844 42.6094 7.49217 38.1328H7.49061ZM4.8703 16.4C5.96405 14.5 7.69061 13.0469 9.74686 12.2922C9.74686 12.3781 9.74217 12.5297 9.74217 12.6359V24.1375C9.73905 24.7219 10.0515 25.264 10.5594 25.5531L22.714 32.5703L18.5062 35C18.464 35.0281 18.4109 35.0328 18.364 35.0125L8.29842 29.1969C3.82498 26.6062 2.29061 20.8828 4.86873 16.4016L4.8703 16.4ZM39.4422 24.4453L27.2875 17.4265L31.4953 14.9984C31.5375 14.9703 31.5906 14.9656 31.6375 14.9859L41.7031 20.7969C46.1844 23.3859 47.7203 29.1187 45.1312 33.6C44.0359 35.4969 42.3109 36.95 40.2562 37.7062V25.8609C40.2609 25.2765 39.95 24.7359 39.4437 24.4453H39.4422ZM43.6297 18.1422C43.5562 18.0969 43.4265 18.0187 43.3344 17.9656L33.3781 12.2156C32.8734 11.9203 32.2484 11.9203 31.7422 12.2156L19.5875 19.2344V14.375C19.5844 14.325 19.6078 14.2766 19.6469 14.2453L29.7109 8.43905C34.1937 5.85311 39.925 7.39218 42.5094 11.8766C43.6016 13.7703 43.9969 15.9875 43.6265 18.1422H43.6297ZM17.3 26.8031L13.0906 24.3734C13.0453 24.3516 13.0156 24.3078 13.0094 24.2578V12.6344C13.0125 7.45936 17.2109 3.26561 22.3859 3.26874C24.575 3.26874 26.6937 4.03749 28.3765 5.43749C28.3 5.47811 28.1687 5.55155 28.0812 5.60468L18.125 11.3547C17.6156 11.6437 17.3031 12.1844 17.3062 12.7703L17.3 26.8V26.8031ZM19.5859 21.875L25 18.7484L30.414 21.8734V28.125L25 31.25L19.5859 28.125V21.875Z" fill="black"/>
</g>
<defs>
<clipPath id="clip0_324_150">
<rect width="50" height="50" fill="white"/>
</clipPath>
</defs>
</svg>
