<svg width="41" height="47" viewBox="0 0 41 47" fill="none" xmlns="http://www.w3.org/2000/svg">
<path d="M24.7055 0C38.2363 0 40.9943 7.48881 40.9943 12.8393V24.958C40.9943 25.0364 40.9631 25.1116 40.9077 25.167C40.8522 25.2225 40.777 25.2536 40.6986 25.2536H21.2197C21.0794 25.2533 20.9404 25.2809 20.8109 25.3349C20.6815 25.3888 20.564 25.468 20.4654 25.5678C20.3669 25.6676 20.2891 25.7861 20.2368 25.9162C20.1845 26.0464 20.1587 26.1857 20.1608 26.3259C20.3453 35.6527 23.0197 37.9755 28.9963 38.1947C29.0737 38.1971 29.1471 38.2294 29.2012 38.2848C29.2553 38.3403 29.2859 38.4145 29.2864 38.4919V46.5342C29.286 46.5732 29.2779 46.6118 29.2626 46.6477C29.2473 46.6836 29.225 46.7162 29.1971 46.7435C29.1692 46.7708 29.1362 46.7923 29.1 46.8069C29.0638 46.8214 29.0251 46.8287 28.986 46.8283C15.3858 46.6777 11.6391 36.2716 11.4703 31.0504V17.0931C11.4703 16.9306 11.6028 16.7982 11.766 16.7982H31.2804C31.8718 16.7982 32.3606 16.3204 32.3425 15.7298C32.266 13.1807 31.5761 8.50513 25.6611 8.50513H0.295484C0.250975 8.50511 0.207046 8.49503 0.166974 8.47566C0.126903 8.45628 0.0917221 8.42811 0.0640562 8.39324C0.0363903 8.35838 0.0169531 8.31771 0.0071943 8.27429C-0.00256451 8.23086 -0.00239312 8.18579 0.00769568 8.14244L1.84954 0.228654C1.88108 0.0946154 1.99935 0 2.13733 0H24.7055ZM38.9064 0.290154H38.3908V1.69519H38.0518V0.291731H37.5353V0H38.9064V0.290154ZM39.6105 0L40.101 1.20162L40.5898 0H40.9998V1.69519H40.6608V0.601596L40.194 1.69362H40.0087L39.5388 0.600808V1.6944H39.1997V0H39.6105Z" fill="#F8F8F8"/>
</svg>
