<svg width="46" height="46" viewBox="0 0 46 46" fill="none" xmlns="http://www.w3.org/2000/svg">
<g clip-path="url(#clip0_324_144)">
<path d="M9.85188 28.9762C9.85188 31.6203 7.71487 33.7573 5.07078 33.7573C2.42668 33.7573 0.289673 31.6203 0.289673 28.9762C0.289673 26.3321 2.42668 24.1951 5.07078 24.1951H9.85188V28.9762ZM12.2424 28.9762C12.2424 26.3321 14.3794 24.1951 17.0235 24.1951C19.6676 24.1951 21.8046 26.3321 21.8046 28.9762V40.9289C21.8046 43.573 19.6676 45.71 17.0235 45.71C14.3794 45.71 12.2424 43.573 12.2424 40.9289V28.9762Z" fill="#E01E5A"/>
<path d="M17.0236 9.77949C14.3795 9.77949 12.2425 7.64248 12.2425 4.99839C12.2425 2.35429 14.3795 0.217285 17.0236 0.217285C19.6677 0.217285 21.8047 2.35429 21.8047 4.99839V9.77949H17.0236ZM17.0236 12.2063C19.6677 12.2063 21.8047 14.3433 21.8047 16.9874C21.8047 19.6315 19.6677 21.7685 17.0236 21.7685H5.03464C2.39055 21.7685 0.25354 19.6315 0.25354 16.9874C0.25354 14.3433 2.39055 12.2063 5.03464 12.2063H17.0236Z" fill="#36C5F0"/>
<path d="M36.1842 16.9874C36.1842 14.3433 38.3212 12.2063 40.9653 12.2063C43.6094 12.2063 45.7464 14.3433 45.7464 16.9874C45.7464 19.6315 43.6094 21.7685 40.9653 21.7685H36.1842V16.9874ZM33.7937 16.9874C33.7937 19.6315 31.6566 21.7685 29.0125 21.7685C26.3685 21.7685 24.2314 19.6315 24.2314 16.9874V4.99839C24.2314 2.35429 26.3685 0.217285 29.0125 0.217285C31.6566 0.217285 33.7937 2.35429 33.7937 4.99839V16.9874Z" fill="#2EB67D"/>
<path d="M29.0125 36.1478C31.6566 36.1478 33.7937 38.2848 33.7937 40.9289C33.7937 43.573 31.6566 45.71 29.0125 45.71C26.3685 45.71 24.2314 43.573 24.2314 40.9289V36.1478H29.0125ZM29.0125 33.7573C26.3685 33.7573 24.2314 31.6203 24.2314 28.9762C24.2314 26.3321 26.3685 24.1951 29.0125 24.1951H41.0015C43.6456 24.1951 45.7826 26.3321 45.7826 28.9762C45.7826 31.6203 43.6456 33.7573 41.0015 33.7573H29.0125Z" fill="#ECB22E"/>
</g>
<defs>
<clipPath id="clip0_324_144">
<rect width="46" height="46" fill="white"/>
</clipPath>
</defs>
</svg>
